:SAMPLES-PER-SECOND 30
:FULLY-SPECIFIED
:DEGREES
271
root  -16.3509 36.7325 -34.5276 37.7555 -74.6336 -46.2058
RightUpLeg  -19.3001 -26.6183 -0.710752
RightLeg  57.5254 4.86156 7.87805
RightFoot  3.33563 -2.94654 22.662
RightToes  6.35927e-011 1.30204e-014 -6.03759e-014
Spine  20.9298 -4.56963 -19.9726
Spine1  -9.53179 -6.96941 -11.2325
HEad  13.6565 0.717957 5.35401
LeftShoulder1  2.62607 -6.71385 -19.1995
LeftArm  13.8861 5.11822 -51.514
LeftForeArm  -166.226 -65.9251 -160.518
LeftHand  -1.18955 8.35183 -36.7976
RightShoulder  1.41821 2.00868 19.3316
RightArm  -21.3532 -32.5987 44.5642
RightForeArm  104.53 80.7161 62.5347
RightHand  0.300563 -12.4155 -6.33165
LeftUpLeg  -13.7892 -1.27006 17.3299
LeftLeg  51.0208 15.7118 20.1863
LeftFoot  -21.5216 -1.16394 -14.4458
LeftToes  7.40077e-010 7.2695e-011 -6.03601e-011
272
root  -16.2144 36.6923 -35.3559 35.3052 -71.7591 -41.4584
RightUpLeg  -18.6663 -25.7485 4.68868
RightLeg  52.0824 2.6768 3.38088
RightFoot  -4.35579 -1.23849 19.0523
RightToes  6.35927e-011 1.30204e-014 -6.03759e-014
Spine  21.1919 -4.37979 -17.4996
Spine1  -7.68673 -6.32812 -8.84034
HEad  10.1726 8.04157 6.94573
LeftShoulder1  2.49576 -6.33976 -18.8289
LeftArm  14.6622 6.99996 -53.1178
LeftForeArm  -164.089 -71.3767 -154.566
LeftHand  0.580602 0.439753 -16.4749
RightShoulder  1.50703 2.28121 19.6788
RightArm  -16.9216 -36.0729 43.7438
RightForeArm  111.676 81.1739 70.1883
RightHand  0.500534 -7.45418 -21.1865
LeftUpLeg  -18.4527 -6.57862 18.8988
LeftLeg  52.1916 17.174 22.6434
LeftFoot  -18.6948 -0.827641 -14.5113
LeftToes  7.40077e-010 7.2695e-011 -6.03601e-011
273
root  -15.9894 36.4006 -36.118 32.6125 -69.1663 -37.3739
RightUpLeg  -19.223 -23.9818 9.34743
RightLeg  49.2022 -3.13147 -4.28335
RightFoot  -12.5205 0.0764026 13.966
RightToes  6.35927e-011 1.30204e-014 -6.03759e-014
Spine  21.9849 -3.78106 -14.4279
Spine1  -5.32678 -5.35661 -7.13666
HEad  6.74958 15.8434 7.01613
LeftShoulder1  2.54653 -6.34389 -19.3655
LeftArm  14.6486 8.69265 -54.2309
LeftForeArm  -167.507 -76.5295 -144.23
LeftHand  -0.311257 -2.90306 6.96216
RightShoulder  1.51795 2.27407 19.9174
RightArm  -15.6976 -38.161 44.0956
RightForeArm  139.078 81.5463 98.8293
RightHand  0.087813 -6.89132 -14.998
LeftUpLeg  -23.1929 -11.2155 20.3359
LeftLeg  54.8578 17.2504 24.8055
LeftFoot  -17.0229 -0.561799 -13.3406
LeftToes  7.40077e-010 7.2695e-011 -6.03601e-011
274
root  -15.7105 35.9297 -36.7252 27.4838 -67.5256 -32.5227
RightUpLeg  -19.4564 -21.0201 11.0057
RightLeg  49.4804 -8.05612 -10.3457
RightFoot  -17.8232 0.593416 12.3615
RightToes  6.35927e-011 1.30204e-014 -6.03759e-014
Spine  23.3518 -3.01154 -11.869
Spine1  -1.91431 -4.28487 -6.33518
HEad  3.65336 22.8089 5.97914
LeftShoulder1  2.73916 -6.68132 -20.4788
LeftArm  12.5757 10.1705 -54.5755
LeftForeArm  -177.173 -78.8914 -134.408
LeftHand  -0.578278 0.424904 13.1246
RightShoulder  1.44053 2.01926 19.7129
RightArm  -16.4043 -36.586 46.3291
RightForeArm  161.098 80.1579 122.331
RightHand  -0.558784 -10.8259 7.5661
LeftUpLeg  -26.2062 -14.9886 19.8815
LeftLeg  58.4758 16.9561 27.6518
LeftFoot  -16.2964 -0.422732 -11.9862
LeftToes  7.40077e-010 7.2695e-011 -6.03601e-011
275
root  -15.422 35.4502 -37.1457 21.4204 -66.628 -27.5959
RightUpLeg  -19.2495 -18.5203 10.4437
RightLeg  51.3857 -10.0638 -13.5668
RightFoot  -20.7234 0.939763 13.1215
RightToes  6.35927e-011 1.30204e-014 -6.03759e-014
Spine  24.8187 -2.38189 -9.61149
Spine1  1.48444 -3.32155 -5.82327
HEad  1.42283 28.5 4.55131
LeftShoulder1  2.89428 -6.94921 -21.3311
LeftArm  8.68437 11.3262 -54.7947
LeftForeArm  173.322 -79.323 -130.215
LeftHand  -0.247936 5.84822 -3.93712
RightShoulder  1.36645 1.87015 19.0124
RightArm  -15.2941 -31.5975 48.9084
RightForeArm  163.233 79.7911 125.009
RightHand  -2.68154 -14.6928 31.3486
LeftUpLeg  -27.6633 -17.0872 17.7942
LeftLeg  62.1849 17.3581 32.0798
LeftFoot  -14.3606 -0.210337 -11.2062
LeftToes  7.40077e-010 7.2695e-011 -6.03601e-011
276
root  -15.1404 35.0355 -37.3506 16.3705 -66.1471 -23.4304
RightUpLeg  -19.5801 -18.086 9.10258
RightLeg  53.8928 -10.3471 -15.2031
RightFoot  -22.6167 1.15362 13.2111
RightToes  6.35927e-011 1.30204e-014 -6.03759e-014
Spine  26.0533 -1.89977 -6.58814
Spine1  3.28131 -2.33068 -5.20326
HEad  0.250582 33.1995 2.96114
LeftShoulder1  2.95142 -7.01961 -21.7102
LeftArm  5.04524 11.9738 -55.1057
LeftForeArm  158.79 -80.0793 -121.804
LeftHand  -2.09496 13.2168 -28.462
RightShoulder  1.34556 1.9688 18.0982
RightArm  -11.3474 -26.1429 50.4272
RightForeArm  157.026 80.6258 117.381
RightHand  -3.83893 -14.1539 45.9852
LeftUpLeg  -29.3019 -16.4852 15.4099
LeftLeg  65.696 17.0687 35.9949
LeftFoot  -10.7521 0.117772 -10.6256
LeftToes  7.40077e-010 7.2695e-011 -6.03601e-011
277
root  -14.9003 34.7512 -37.3229 13.0134 -65.741 -20.5009
RightUpLeg  -20.2984 -19.4673 7.61033
RightLeg  56.069 -9.9557 -15.8756
RightFoot  -23.5628 1.16871 12.3682
RightToes  6.35927e-011 1.30204e-014 -6.03759e-014
Spine  26.6273 -1.67336 -2.0142
Spine1  3.87518 -1.17917 -4.64285
HEad  -0.808254 37.4913 0.801292
LeftShoulder1  2.99785 -7.1176 -21.8998
LeftArm  2.82755 12.2229 -54.9193
LeftForeArm  132.195 -81.1985 -100.11
LeftHand  -5.74082 19.7901 -42.227
RightShoulder  1.32325 2.06278 17.2034
RightArm  -6.58701 -22.0124 51.5524
RightForeArm  153.763 81.1237 111.777
RightHand  -3.24999 -12.1654 48.9675
LeftUpLeg  -31.9148 -12.5825 13.5566
LeftLeg  68.5312 13.8707 34.5071
LeftFoot  -7.58237 0.367982 -9.80413
LeftToes  7.40077e-010 7.2695e-011 -6.03601e-011
278
root  -14.7616 34.6034 -37.0782 10.2124 -65.3902 -18.3112
RightUpLeg  -20.0474 -21.2497 5.6169
RightLeg  57.2476 -8.93749 -15.0363
RightFoot  -23.8243 1.18491 12.2743
RightToes  6.35927e-011 1.30204e-014 -6.03759e-014
Spine  26.3359 -1.84879 3.48974
Spine1  4.71382 -0.103366 -4.41098
HEad  -2.65182 41.8869 -2.18918
LeftShoulder1  3.02784 -7.21378 -21.9282
LeftArm  0.685732 12.6448 -53.5911
LeftForeArm  103.358 -80.8923 -76.6924
LeftHand  -8.12178 24.1073 -44.8685
RightShoulder  1.26748 2.01541 16.3236
RightArm  -2.45369 -18.0135 53.406
RightForeArm  149.844 81.4169 106.786
RightHand  -3.61866 -13.4969 46.1187
LeftUpLeg  -34.5019 -5.77096 11.9192
LeftLeg  71.2746 8.36746 26.3899
LeftFoot  -5.87942 0.482643 -9.34104
LeftToes  7.40077e-010 7.2695e-011 -6.03601e-011
279
root  -14.7246 34.591 -36.6782 6.19238 -66.0156 -15.4205
RightUpLeg  -18.2717 -21.4818 2.53178
RightLeg  57.5788 -7.87808 -13.567
RightFoot  -23.9817 1.30231 13.181
RightToes  6.35927e-011 1.30204e-014 -6.03759e-014
Spine  25.7605 -1.87405 8.10005
Spine1  5.55012 0.895393 -4.08422
HEad  -4.70166 46.3741 -5.30176
LeftShoulder1  2.93872 -6.95437 -21.7661
LeftArm  -2.99936 13.9051 -51.1365
LeftForeArm  90.462 -80.265 -69.3292
LeftHand  -9.16339 25.7026 -46.2461
RightShoulder  1.23071 2.04412 15.4688
RightArm  1.07528 -13.0404 55.5941
RightForeArm  138.959 81.7517 95.5154
RightHand  -4.66053 -15.6098 46.9653
LeftUpLeg  -35.6147 2.91201 10.2306
LeftLeg  74.3237 3.89692 16.7435
LeftFoot  -4.65222 0.629435 -10.2518
LeftToes  7.40077e-010 7.2695e-011 -6.03601e-011
280
root  -14.7701 34.7869 -36.0964 0.213257 -66.8472 -10.4924
RightUpLeg  -15.6648 -20.604 -1.53233
RightLeg  56.9435 -7.60007 -12.8003
RightFoot  -23.975 1.38488 13.9264
RightToes  6.35927e-011 1.30204e-014 -6.03759e-014
Spine  24.8171 -1.69464 11.3783
Spine1  5.72139 1.57817 -3.25801
HEad  -5.61701 50.4305 -7.0736
LeftShoulder1  2.74112 -6.28066 -21.6774
LeftArm  -7.73771 15.9745 -48.4143
LeftForeArm  93.3906 -80.4165 -76.3267
LeftHand  -10.9243 27.6383 -49.9049
RightShoulder  1.23584 2.20436 14.8763
RightArm  3.78167 -8.28318 56.8474
RightForeArm  132.84 81.8391 88.1351
RightHand  -4.78881 -14.8687 51.8224
LeftUpLeg  -35.2641 10.4135 8.97329
LeftLeg  76.0943 2.17814 11.5852
LeftFoot  -4.57333 0.740049 -12.0589
LeftToes  7.40077e-010 7.2695e-011 -6.03601e-011
281
root  -14.9293 35.1739 -35.4047 -7.75757 -67.1053 -2.88806
RightUpLeg  -13.0819 -19.0669 -6.28445
RightLeg  55.5021 -8.12151 -12.8908
RightFoot  -23.4464 1.36126 14.2808
RightToes  6.35927e-011 1.30204e-014 -6.03759e-014
Spine  23.0716 -0.794881 12.7944
Spine1  5.32296 2.08508 -1.09297
HEad  -6.3821 53.7117 -7.67312
LeftShoulder1  2.51387 -5.48699 -21.6134
LeftArm  -12.2245 18.19 -46.4998
LeftForeArm  109.181 -80.6505 -92.7143
LeftHand  -11.9431 30.8754 -47.7632
RightShoulder  1.23947 2.22557 14.8601
RightArm  5.09947 -5.53353 56.4972
RightForeArm  145.165 81.8276 98.099
RightHand  -3.37596 -12.2668 50.0675
LeftUpLeg  -33.6902 15.1577 8.40141
LeftLeg  75.0265 2.39706 11.3743
LeftFoot  -6.01589 0.595244 -11.8714
LeftToes  7.40077e-010 7.2695e-011 -6.03601e-011
